# xmcd
#
# Track frame offsets: 
#        150
#        21361
#        37275
#        56405
#        71750
#        88640
#        101970
#        119931
#        140577
#        154950
#
# Disc length: 2310 seconds
#
# Revision: 0
# Processed by: cddbd v1.5.2PL0 Copyright (c) Steve Scherf et al.
# Submitted via: ExactAudioCopy v0.99pb1
#
DISCID=9d09040a
DTITLE=Юрий Охочинский - Всё для тебя
DYEAR=2007
DGENRE=Other
TTITLE0=Всё для тебя
TTITLE1=Танцуй co мной
TTITLE2=Хочу тебя поцеловать в Париже
TTITLE3=Дорогая Мадлен
TTITLE4=Ты (Tous Les Visages de L'Amour)
TTITLE5=Нас закружила карусель
TTITLE6=Весенний вечер
TTITLE7=Без тебя
TTITLE8=Too Beautiful to Last (Это слишком прекрасно, чтобы продолжать
TTITLE8=ся)
TTITLE9=Мой юный Петербург
EXTD=
EXTT0=
EXTT1=
EXTT2=
EXTT3=
EXTT4=
EXTT5=
EXTT6=
EXTT7=
EXTT8=
EXTT9=
PLAYORDER=
